<?xml version="1.0" encoding="UTF-8" standalone="no"?>
<svg width="16px" height="17px" viewBox="0 0 16 17" version="1.1" xmlns="http://www.w3.org/2000/svg" xmlns:xlink="http://www.w3.org/1999/xlink">
    <!-- Generator: Sketch 40.3 (33839) - http://www.bohemiancoding.com/sketch -->
    <title>package</title>
    <desc>Created with Sketch.</desc>
    <defs></defs>
    <g id="Page-1" stroke="none" stroke-width="1" fill="none" fill-rule="evenodd">
        <g id="package" fill="#000000">
            <path d="M15.9926773,4.00611814 C15.9926773,3.94156118 15.978032,3.87700422 15.9487414,3.81603376 C15.8901602,3.69409283 15.776659,3.61160338 15.6521739,3.58649789 L8.19405034,0.0430379747 C8.07322654,-0.0143459916 7.93043478,-0.0143459916 7.80961098,0.0430379747 L0.27826087,3.61877637 C0.13180778,3.68691983 0.0366132723,3.83037975 0.0292906178,3.99177215 L0.0292906178,3.99535865 L0.0292906178,4.00970464 L0.0292906178,12.9831224 C0.0292906178,13.1481013 0.124485126,13.2987342 0.27826087,13.3704641 L7.80961098,16.9462025 C7.81327231,16.9462025 7.81327231,16.9462025 7.81693364,16.949789 C7.82791762,16.9533755 7.8389016,16.956962 7.84988558,16.964135 C7.85354691,16.964135 7.85720824,16.9677215 7.86453089,16.9677215 C7.87551487,16.971308 7.88649886,16.9748945 7.89748284,16.978481 C7.90114416,16.978481 7.90480549,16.9820675 7.90846682,16.9820675 C7.9194508,16.985654 7.93409611,16.985654 7.94508009,16.9892405 L7.95606407,16.9892405 C7.97070938,16.9892405 7.98901602,16.992827 8.00366133,16.992827 C8.01830664,16.992827 8.03661327,16.992827 8.05125858,16.9892405 L8.06224256,16.9892405 C8.07322654,16.9892405 8.08787185,16.985654 8.09885584,16.9820675 C8.10251716,16.9820675 8.10617849,16.978481 8.10983982,16.978481 C8.1208238,16.9748945 8.13180778,16.971308 8.14279176,16.9677215 C8.14645309,16.9677215 8.15011442,16.964135 8.15743707,16.964135 C8.16842105,16.9605485 8.17940503,16.956962 8.19038902,16.949789 C8.19405034,16.949789 8.19405034,16.949789 8.19771167,16.9462025 L15.7510297,13.3597046 C15.9011442,13.2879747 16,13.1373418 16,12.9723629 L16,4.01687764 C15.9926773,4.01329114 15.9926773,4.00970464 15.9926773,4.00611814 L15.9926773,4.00611814 Z M8,0.907383966 L14.5318078,4.00970464 L12.1263158,5.15379747 L5.59450801,2.05147679 L8,0.907383966 L8,0.907383966 Z M8,7.11202532 L1.46819222,4.00970464 L4.58764302,2.52848101 L11.1194508,5.63080169 L8,7.11202532 L8,7.11202532 Z M0.908009153,4.70189873 L7.56064073,7.86160338 L7.56064073,15.8702532 L0.908009153,12.7105485 L0.908009153,4.70189873 L0.908009153,4.70189873 Z M8.43935927,15.8702532 L8.43935927,7.86160338 L11.5624714,6.37679325 L11.5624714,8.47130802 C11.5624714,8.70801688 11.7601831,8.90168776 12.0018307,8.90168776 C12.2434783,8.90168776 12.4411899,8.70801688 12.4411899,8.47130802 L12.4411899,5.957173 L15.1139588,4.68755274 L15.1139588,12.6962025 L8.43935927,15.8702532 L8.43935927,15.8702532 Z" id="Shape"></path>
        </g>
    </g>
</svg>