<?xml version="1.0" encoding="UTF-8" standalone="no"?>
<svg width="83px" height="83px" viewBox="0 0 83 83" version="1.1" xmlns="http://www.w3.org/2000/svg" xmlns:xlink="http://www.w3.org/1999/xlink">
    <!-- Generator: Sketch 40.3 (33839) - http://www.bohemiancoding.com/sketch -->
    <title>icon</title>
    <desc>Created with Sketch.</desc>
    <defs>
        <linearGradient x1="18.2879192%" y1="0%" x2="91.4586509%" y2="100%" id="linearGradient-1">
            <stop stop-color="#2F1645" offset="0%"></stop>
            <stop stop-color="#513764" offset="25.361152%"></stop>
            <stop stop-color="#5B3461" offset="62.0315599%"></stop>
            <stop stop-color="#864059" offset="100%"></stop>
        </linearGradient>
    </defs>
    <g id="Page-1" stroke="none" stroke-width="1" fill="none" fill-rule="evenodd">
        <g id="icon">
            <rect id="backgroundrect" x="0" y="0" width="83" height="82"></rect>
            <g id="Layer-1">
                <g id="g3422">
                    <g id="Page-1">
                        <g id="opt-2">
                            <g id="icon">
                                <circle id="Oval-1" fill="url(#linearGradient-1)" transform="translate(41.352559, 41.279720) scale(-1, 1) translate(-41.352559, -41.279720) " cx="41.352559" cy="41.27972" r="41"></circle>
                                <g id="package" transform="translate(23.000000, 22.000000)" fill="#FBE9FF">
                                    <path d="M36.9830664,9.19050633 C36.9830664,9.04240506 36.9491991,8.8943038 36.8814645,8.75443038 C36.7459954,8.47468354 36.483524,8.28544304 36.1956522,8.2278481 L18.9487414,0.0987341772 C18.6693364,-0.0329113924 18.3391304,-0.0329113924 18.0597254,0.0987341772 L0.643478261,8.30189873 C0.304805492,8.45822785 0.0846681922,8.78734177 0.0677345538,9.15759494 L0.0677345538,9.16582278 L0.0677345538,9.19873418 L0.0677345538,29.7848101 C0.0677345538,30.1632911 0.287871854,30.5088608 0.643478261,30.6734177 L18.0597254,38.8765823 C18.0681922,38.8765823 18.0681922,38.8765823 18.076659,38.8848101 C18.1020595,38.893038 18.12746,38.9012658 18.1528604,38.9177215 C18.1613272,38.9177215 18.1697941,38.9259494 18.1867277,38.9259494 C18.2121281,38.9341772 18.2375286,38.9424051 18.2629291,38.9506329 C18.2713959,38.9506329 18.2798627,38.9588608 18.2883295,38.9588608 C18.31373,38.9670886 18.3475973,38.9670886 18.3729977,38.9753165 L18.3983982,38.9753165 C18.4322654,38.9753165 18.4745995,38.9835443 18.5084668,38.9835443 C18.5423341,38.9835443 18.5846682,38.9835443 18.6185355,38.9753165 L18.6439359,38.9753165 C18.6693364,38.9753165 18.7032037,38.9670886 18.7286041,38.9588608 C18.7370709,38.9588608 18.7455378,38.9506329 18.7540046,38.9506329 C18.779405,38.9424051 18.8048055,38.9341772 18.8302059,38.9259494 C18.8386728,38.9259494 18.8471396,38.9177215 18.8640732,38.9177215 C18.8894737,38.9094937 18.9148741,38.9012658 18.9402746,38.8848101 C18.9487414,38.8848101 18.9487414,38.8848101 18.9572082,38.8765823 L36.4242563,30.6487342 C36.7713959,30.4841772 37,30.1386076 37,29.7601266 L37,9.21518987 C36.9830664,9.20696203 36.9830664,9.19873418 36.9830664,9.19050633 L36.9830664,9.19050633 Z M18.5,2.08164557 L33.6048055,9.19873418 L28.0421053,11.8234177 L12.9372998,4.70632911 L18.5,2.08164557 L18.5,2.08164557 Z M18.5,16.3158228 L3.39519451,9.19873418 L10.6089245,5.80063291 L25.71373,12.9177215 L18.5,16.3158228 L18.5,16.3158228 Z M2.09977117,10.7867089 L17.4839817,18.035443 L17.4839817,36.4082278 L2.09977117,29.1594937 L2.09977117,10.7867089 L2.09977117,10.7867089 Z M19.5160183,36.4082278 L19.5160183,18.035443 L26.7382151,14.6291139 L26.7382151,19.4341772 C26.7382151,19.9772152 27.1954233,20.421519 27.7542334,20.421519 C28.3130435,20.421519 28.7702517,19.9772152 28.7702517,19.4341772 L28.7702517,13.6664557 L34.9510297,10.7537975 L34.9510297,29.1265823 L19.5160183,36.4082278 L19.5160183,36.4082278 Z" id="Shape"></path>
                                </g>
                            </g>
                        </g>
                    </g>
                </g>
            </g>
        </g>
    </g>
</svg>